# xmcd
#
# Track frame offsets:
#	150
#	17738
#	39538
#	58847
#	75555
#	94771
#	114445
#	128089
#
# Disc length: 1946 seconds
#
# Revision: 1
# Processed by: cddbd v1.5.2PL0 Copyright (c) Steve Scherf et al.
# Submitted via: audiograbber 1.83.01
#
DISCID=5e079808
DTITLE=Barry Charles - Something Goin On Out There
DYEAR=2008
DGENRE=Country
TTITLE0=Shirley Sassy
TTITLE1=Cruisin
TTITLE2=Money Can´t Bay It
TTITLE3=High Technology Blues
TTITLE4=Something Goin On Out There
TTITLE5=Little Red Rooster
TTITLE6=Don´t Want To Know
TTITLE7=You´re The One
EXTD=
EXTT0=
EXTT1=
EXTT2=
EXTT3=
EXTT4=
EXTT5=
EXTT6=
EXTT7=
PLAYORDER=
